<svg xmlns="http://www.w3.org/2000/svg" xmlns:xlink="http://www.w3.org/1999/xlink" viewBox="0 0 194 401.12"><defs><style>.cls-1{fill:#fbe9e3;}.cls-2{fill:#fbe6e1;}.cls-3{fill:url(#未命名的渐变_75);}.cls-4{fill:#f8d7cf;}.cls-5{fill:url(#未命名的渐变_75-2);}.cls-6{fill:#515259;}.cls-7{fill:url(#未命名的渐变_75-3);}.cls-8{fill:url(#未命名的渐变_75-4);}.cls-9{fill:url(#未命名的渐变_75-5);}</style><linearGradient id="未命名的渐变_75" x1="97.04" y1="283.84" x2="97.04" y2="239.11" gradientUnits="userSpaceOnUse"><stop offset="0" stop-color="#fff"/><stop offset="0" stop-color="#f8dad2"/><stop offset="1" stop-color="#fbe9e3"/><stop offset="1"/></linearGradient><linearGradient id="未命名的渐变_75-2" x1="53" y1="55.61" x2="137" y2="55.61" xlink:href="#未命名的渐变_75"/><linearGradient id="未命名的渐变_75-3" x1="98.5" y1="262.11" x2="98.5" y2="155.11" xlink:href="#未命名的渐变_75"/><linearGradient id="未命名的渐变_75-4" x1="74" y1="188.11" x2="74" y2="132.11" xlink:href="#未命名的渐变_75"/><linearGradient id="未命名的渐变_75-5" x1="120" y1="188.11" x2="120" y2="132.11" xlink:href="#未命名的渐变_75"/></defs><title>资源 3</title><g id="图层_2" data-name="图层 2"><g id="图层_1-2" data-name="图层 1"><path class="cls-1" d="M9,166.11s-14.19,46.35-4.84,74.65a15,15,0,1,0,21.08-.59c3-7.45,10.16-27.88,7.76-47.06,0,0,8-6,10-19l16-69S13,119.11,9,166.11Z"/><path class="cls-1" d="M185,169.11s14.19,46.35,4.84,74.65a15,15,0,1,1-21.08-.59c-3-7.45-10.16-27.88-7.76-47.06,0,0-8-6-10-19l-16-69S181,122.11,185,169.11Z"/><path class="cls-2" d="M53,233.11s2,16-5,21-18,43-11,62l35-5s20-14,19-31S62,234.11,53,233.11Z"/><path class="cls-1" d="M35,303.11s4,44,34,65c0,0-27,24,0,33,0,0,18,1,23-24,0,0,1-14-6-18,0,0,8-44-27-51Z"/><path class="cls-2" d="M143,233.11s-2,16,5,21,18,43,11,62l-35-5s-20-14-19-31S134,234.11,143,233.11Z"/><path class="cls-1" d="M161,303.11s-4,44-34,65c0,0,27,24,0,33,0,0-18,1-23-24,0,0-1-14,6-18,0,0-8-44,27-51Z"/><path class="cls-1" d="M73.68,91.11v8s-21.58,7.78-34.43,14.74a14.2,14.2,0,0,0-7,16l11,43.28H144.79L155.54,130a13.8,13.8,0,0,0-6.65-15.39,183.3,183.3,0,0,0-33.56-14.47l-1-9Z"/><path class="cls-3" d="M53,242.78c2.42,5.66,9.52,18.66,25,23.3a35,35,0,0,1,13.24,13.38,8.34,8.34,0,0,0,10.43,3.76l.33-.14c7-3,4-15,16-18,0,0,17.6-9.68,23.08-23.26a2,2,0,0,0-1.82-2.71l-84.47.94A2,2,0,0,0,53,242.78Z"/><ellipse class="cls-4" cx="63" cy="70.61" rx="14" ry="14.5"/><ellipse class="cls-4" cx="128" cy="70.61" rx="14" ry="14.5"/><path class="cls-5" d="M137,56.11c0,27.62-18.8,49-42,49s-42-21.38-42-49,18.8-50,42-50C124,6.11,137,28.5,137,56.11Z"/><path class="cls-6" d="M97,.11s13.58-1.85,17,9.48A18,18,0,0,1,99.55,32.36c-4.28.67-9.71.35-16.56-1.83a10.05,10.05,0,0,1-7.09-8.94,9.1,9.1,0,0,1,1-4.61,4.74,4.74,0,0,1,4.81-2.51c5.32.61,16.78,1.46,18.31-2.36C100,12.11,107,6.11,97,.11Z"/><ellipse class="cls-7" cx="98.5" cy="208.61" rx="55.5" ry="53.5"/><circle class="cls-8" cx="74" cy="160.11" r="28"/><circle class="cls-9" cx="120" cy="160.11" r="28"/></g></g></svg>