<?xml version="1.0" standalone="no"?>
<!DOCTYPE svg PUBLIC "-//W3C//DTD SVG 1.1//EN" "http://www.w3.org/Graphics/SVG/1.1/DTD/svg11.dtd" >
<!--
2013-9-30: Created.
-->
<svg>
<metadata>
Created by iconfont
</metadata>
<defs>

<font id="iconfont" horiz-adv-x="1024" >
  <font-face
    font-family="iconfont"
    font-weight="500"
    font-stretch="normal"
    units-per-em="1024"
    ascent="896"
    descent="-128"
  />
    <missing-glyph />
    
    <glyph glyph-name="1" unicode="&#58950;" d="M501.686608 489.483426l-78.465073 0c-7.188726 0-12.904914-6.192026-12.904914-13.130042 0-7.188726 5.733585-12.904914 12.904914-12.904914l78.465073 0c6.943133 0 12.635785 5.969968 12.635785 12.904914C514.322393 483.543134 508.830309 489.483426 501.686608 489.483426L501.686608 489.483426zM631.645472 489.483426 553.179376 489.483426c-6.943133 0-12.636808-6.192026-12.636808-13.130042 0-7.188726 5.492084-12.904914 12.636808-12.904914l78.466096 0c7.187703 0 12.903891 5.969968 12.903891 12.904914C644.549364 483.543134 638.814756 489.483426 631.645472 489.483426zM501.686608 411.754111l-78.465073 0c-7.188726 0-12.904914-5.969968-12.904914-12.904914 0-7.188726 5.733585-13.130042 12.904914-13.130042l78.465073 0c6.943133 0 12.635785 6.192026 12.635785 13.130042C514.322393 406.037922 508.830309 411.754111 501.686608 411.754111L501.686608 411.754111zM631.645472 411.754111 553.179376 411.754111c-6.943133 0-12.636808-5.969968-12.636808-12.904914 0-7.188726 5.492084-13.130042 12.636808-13.130042l78.466096 0c7.187703 0 12.903891 6.192026 12.903891 13.130042C644.549364 406.037922 638.814756 411.754111 631.645472 411.754111zM501.686608 333.986933l-78.465073 0c-7.188726 0-12.904914-5.970992-12.904914-12.904914 0-7.188726 5.733585-12.904914 12.904914-12.904914l78.465073 0c6.943133 0 12.635785 5.969968 12.635785 12.904914C514.322393 328.269721 508.830309 333.986933 501.686608 333.986933L501.686608 333.986933zM644.502291 321.145463c0 7.187703-5.734608 12.903891-12.904914 12.903891l-78.465073 0c-6.943133 0-12.636808-5.969968-12.636808-12.903891 0-7.188726 5.492084-12.904914 12.636808-12.904914l78.465073 0C638.786103 308.240549 644.502291 314.209494 644.502291 321.145463zM696.502619 612.5186c0 7.188726-5.734608 12.904914-12.636808 12.904914l-66.258053 0c-6.193049 44.098357-44.357254 77.722152-90.161463 77.722152-45.805232 0-83.888596-33.624818-90.162486-77.722152l-66.259076 0c-7.188726 0-12.635785-5.734608-12.635785-12.904914l0-103.954607L189.343881 508.563994c-7.188726 0-13.130042-5.733585-13.130042-12.635785l0-356.919992c0-7.188726 5.969968-12.635785 13.130042-12.635785L98.260419 126.372431l0-19.323091 858.364589 0L956.625008 126.371408l-91.083461 0c7.188726 0 13.130042 5.491061 13.130042 12.635785L878.671589 495.927185c0 6.944156-5.970992 12.635785-13.130042 12.635785L696.496479 508.56297 696.496479 612.5186 696.502619 612.5186zM617.596502 599.634152l52.937676 0 0-447.535803-78.228689 0 0.224104 110.633726c0 6.944156-5.970992 12.903891-13.130042 12.903891L475.443921 275.635967c-7.40669 0-13.130042-5.733585-13.130042-12.903891l0-110.633726-77.972862 0L384.341017 599.634152 437.279716 599.634152c6.192026-44.098357 44.357254-77.723176 90.161463-77.723176 45.805232 0 83.888596 33.624818 90.161463 77.723176L617.596502 599.634152zM813.801139 197.881069c7.188726 0 12.904914-5.734608 12.904914-12.904914 0-6.943133-5.734608-12.904914-12.904914-12.904914l-78.465073 0c-7.188726 0-12.904914 5.734608-12.904914 12.904914 0 6.943133 5.734608 12.904914 12.904914 12.904914L813.801139 197.881069zM813.801139 275.597081c7.188726 0 12.904914-5.734608 12.904914-12.904914 0-6.943133-5.734608-12.904914-12.904914-12.904914l-78.465073 0c-7.188726 0-12.904914 5.734608-12.904914 12.904914 0 6.944156 5.734608 12.904914 12.904914 12.904914L813.801139 275.597081zM813.801139 353.357096c7.188726 0 12.904914-5.733585 12.904914-12.904914 0-6.943133-5.734608-13.129019-12.904914-13.129019l-78.465073 0c-7.188726 0-12.904914 5.969968-12.904914 13.129019 0 6.944156 5.734608 12.904914 12.904914 12.904914L813.801139 353.357096zM813.801139 431.077202c7.188726 0 12.904914-5.969968 12.904914-13.130042 0-6.944156-5.734608-12.904914-12.904914-12.904914l-78.465073 0c-7.188726 0-12.904914 5.733585-12.904914 12.904914 0 6.944156 5.734608 13.130042 12.904914 13.130042L813.801139 431.077202zM319.521732 197.881069c7.188726 0 12.904914-5.734608 12.904914-12.904914 0-6.943133-5.734608-12.904914-12.904914-12.904914l-78.465073 0c-7.188726 0-12.904914 5.734608-12.904914 12.904914 0 6.943133 5.734608 12.904914 12.904914 12.904914L319.521732 197.881069zM319.521732 275.597081c7.188726 0 12.904914-5.734608 12.904914-12.904914 0-6.943133-5.734608-12.904914-12.904914-12.904914l-78.465073 0c-7.188726 0-12.904914 5.734608-12.904914 12.904914 0 6.944156 5.734608 12.904914 12.904914 12.904914L319.521732 275.597081zM319.521732 353.357096c7.188726 0 12.904914-5.733585 12.904914-12.904914 0-6.943133-5.734608-13.129019-12.904914-13.129019l-78.465073 0c-7.188726 0-12.904914 5.969968-12.904914 13.129019 0 6.944156 5.734608 12.904914 12.904914 12.904914L319.521732 353.357096zM319.521732 431.077202c7.188726 0 12.904914-5.969968 12.904914-13.130042 0-6.944156-5.734608-12.904914-12.904914-12.904914l-78.465073 0c-7.188726 0-12.904914 5.733585-12.904914 12.904914 0 6.944156 5.734608 13.130042 12.904914 13.130042L319.521732 431.077202zM558.650995 599.634152l-18.125823 0 0-18.380626c0-4.323469-3.807722-7.668657-7.861038-7.668657L522.162966 573.584869c-4.323469 0-7.861038 3.567245-7.861038 7.668657l0 18.380626-18.125823 0c-4.323469 0-7.860015 3.567245-7.860015 7.668657l0 10.502192c0 4.323469 3.807722 7.668657 7.860015 7.668657l18.125823 0 0 18.380626c0 4.323469 3.807722 7.668657 7.861038 7.668657l10.502192 0c4.323469 0 7.861038-3.567245 7.861038-7.668657l0-18.380626 18.125823 0c4.323469 0 7.861038-3.567245 7.861038-7.668657l0-10.502192C566.512033 602.97934 562.70431 599.634152 558.650995 599.634152z"  horiz-adv-x="1024" />

    
    <glyph glyph-name="yiyuan" unicode="&#59105;" d="M527.57504 824.08448 24.38144 478.24384 24.38144 384l94.24384 0 0-440.0896 786.75456 0L905.37984 384l94.23872 0L999.61856 478.24384 527.57504 824.08448zM752.3072 235.82208l-174.67392 0 0-174.67392L446.05952 61.14816l0 174.67392L272.52224 235.82208l0 130.432 174.67392 0L447.19616 540.92288l130.43712 0 0-174.67392 174.67392 0L752.3072 235.82208z"  horiz-adv-x="1025" />

    
    <glyph glyph-name="gerenfill" unicode="&#58906;" d="M639.318734 533.528572c0 70.606081-57.443293 128.049375-128.049375 128.049375-70.606081 0-128.049375-57.44227-128.049375-128.049375s57.44227-128.049375 128.049375-128.049375C581.874417 405.48022 639.318734 462.922491 639.318734 533.528572zM829.599452 700.335668c-84.647889 84.647889-197.194174 131.265626-316.904627 131.265626-119.710452 0-232.256738-46.61876-316.90565-131.265626C111.14231 615.686756 64.523549 503.141494 64.523549 383.431042c0-119.709429 46.61876-232.256738 131.265626-316.904627 84.648912-84.649935 197.194174-131.266649 316.90565-131.266649 119.709429 0 232.256738 46.617737 316.904627 131.266649 84.649935 84.647889 131.266649 197.194174 131.266649 316.904627C960.866101 503.141494 914.248364 615.686756 829.599452 700.335668zM732.928738 132.045641c-11.048637 0-20.007683 8.958022-20.007683 20.007683 0 111.192452-90.460268 201.652719-201.652719 201.652719s-201.651696-90.460268-201.651696-201.652719c0-11.048637-8.958022-20.007683-20.007683-20.007683-11.04966 0-20.007683 8.958022-20.007683 20.007683 0 107.004059 69.912279 197.973934 166.45201 229.668797-55.802934 27.762297-94.256734 85.364203-94.256734 151.806451 0 93.447299 76.025511 169.471786 169.471786 169.471786s169.471786-76.025511 169.471786-169.471786c0-66.442248-38.452777-124.045177-94.256734-151.806451 96.53973-31.695886 166.45201-122.664737 166.45201-229.668797C752.936421 141.003664 743.978399 132.045641 732.928738 132.045641z"  horiz-adv-x="1024" />

    
    <glyph glyph-name="keshi" unicode="&#58902;" d="M892.866194 480.444489c0 62.931948-51.164185 114.096133-113.993804 114.096133s-113.993804-51.164185-113.993804-114.096133c0-56.280604 40.522035-103.453982 96.393325-112.151894l2.046567-0.306985-0.511642-194.219247c0-0.716299 0.102328-1.023284 0.102328-1.023284l0.102328-0.716299c0-106.830818-86.979115-193.707605-193.809933-193.707605-104.784251 0-191.558709 85.341861-193.502948 190.22844L375.698611 364.097132l2.148896 0.204657c115.119416 10.437494 207.21495 105.091236 214.275607 220.005996 0.306985 1.432597 0.409313 2.251224 0.409313 3.172179l0.102328 8.390926c0.102328 1.023284 0.102328 1.841911 0.102328 2.762866l-0.204657 205.884681-0.409313 2.353553c-0.102328 11.870091-9.618867 21.284301-21.079644 21.284301l-102.32837 0c-11.563106 0-20.977316-9.41421-20.977316-21.079644 0-11.563106 9.41421-21.079644 20.977316-21.079644l81.862696 0-0.511642-185.521335c0-0.716299 0.102328-1.023284 0.102328-1.023284l0.102328-0.716299c0-106.830818-86.979115-193.707605-193.809933-193.707605-104.784251 0-191.558709 85.341861-193.502948 190.22844L162.957929 785.894674l81.351054 0c11.665434 0 21.079644 9.41421 21.079644 21.079644 0 11.665434-9.41421 21.079644-21.079644 21.079644l-102.32837 0c-10.437494 0-19.44239-7.776956-20.772659-18.21445l-0.204657-1.534926c0-0.511642 0-0.920955 0-1.432597l0.102328-0.920955-0.306985-211.001099c0-119.621865 90.662936-219.08504 210.898771-231.262117l2.148896-0.204657-0.306985-195.344859c0-130.366344 103.556311-232.694714 235.662236-232.694714 124.533626 0 227.987609 97.518937 235.662236 222.052563 0.306985 1.432597 0.409313 2.251224 0.409313 3.172179l0.102328 8.80024c0.102328 0.818627 0.102328 1.534926 0.102328 2.251224l-0.204657 197.596083 1.739582 0.409313C857.562906 382.720895 892.866194 428.154692 892.866194 480.444489L892.866194 480.444489zM778.770061 407.382033c-40.215049 0-72.960128 32.745078-72.960128 72.960128 0 40.215049 32.745078 72.960128 72.960128 72.960128 40.215049 0 72.960128-32.745078 72.960128-72.960128C851.730189 440.127111 818.98511 407.382033 778.770061 407.382033L778.770061 407.382033z"  horiz-adv-x="1024" />

    
    <glyph glyph-name="loucengdaohang" unicode="&#58969;" d="M899.584 161.9968c-6.4512 10.24-19.6608 13.7216-30.208 8.0896l-47.104 74.9568c89.9072 54.0672 150.2208 152.6784 150.2208 265.0112C972.4928 680.5504 833.8432 819.2 663.4496 819.2c-140.288 0-258.9696-93.9008-296.6528-222.208L72.704 596.992c-7.0656 0-13.6192-3.7888-17.6128-9.6256-3.8912-5.8368-4.7104-13.5168-2.1504-20.0704l81.5104-203.6736-80.7936-164.864c-3.1744-6.5536-2.8672-14.2336 0.9216-20.3776l102.1952-166.5024c3.8912-6.3488 10.752-9.9328 18.1248-9.9328l511.2832 0c7.68 0 14.6432 3.8912 18.432 10.5472 3.7888 6.656 3.6864 14.5408-0.2048 21.1968l-88.9856 149.8112 17.6128 19.0464c10.0352-1.024 20.0704-1.536 30.3104-1.536 42.9056 0 83.7632 8.8064 120.832 24.576l49.0496-78.1312c-9.6256-7.0656-12.1856-20.48-5.7344-30.72l47.5136-75.6736c6.7584-10.752 20.992-14.0288 31.744-7.2704l32.9728 20.6848c10.752 6.7584 14.0288 20.992 7.2704 31.744L899.584 161.9968zM104.1408 553.984l253.3376 0c-2.048-14.336-3.1744-28.9792-3.1744-43.8272 0-44.9536 9.6256-87.552 26.9312-126.1568L172.1344 384 104.1408 553.984zM648.9088 44.032 186.7776 44.032l-77.9264 127.0784 468.0704-5.9392L648.9088 44.032zM579.9936 207.6672l-471.6544 5.9392L171.2128 342.016l233.0624 0c41.1648-63.1808 104.6528-110.4896 179.3024-130.4576L579.9936 207.6672zM663.4496 243.5072c-146.944 0-266.5472 119.6032-266.5472 266.5472 0 146.944 119.6032 266.5472 266.5472 266.5472s266.5472-119.6032 266.5472-266.5472C929.9968 363.1104 810.3936 243.5072 663.4496 243.5072z"  horiz-adv-x="1024" />

    
    <glyph glyph-name="yiyuan-2" unicode="&#58900;" d="M435.7 513.383V650.514h152.972v-137.131l85.765 85.767c29.87 29.868 29.87 78.295 0 108.167L566.269 815.483c-29.868 29.872-78.3 29.872-108.167 0L349.936 707.317c-29.871-29.872-29.871-78.3 0-108.167l85.763-85.767zM244.483 306.326V459.298h137.131l-85.767 85.764c-29.868 29.872-78.295 29.872-108.166 0L79.514 436.896c-29.871-29.869-29.871-78.3 0-108.167L187.68 220.563c29.872-29.872 78.3-29.872 108.167 0l85.767 85.764h-137.13z m344.188-54.085V115.11H435.7V252.24l-85.764-85.767c-29.871-29.869-29.871-78.295 0-108.167L458.1-49.859c29.869-29.872 78.3-29.872 108.167 0l108.167 108.166c29.87 29.872 29.87 78.3 0 108.167l-85.763 85.767z m356.185 184.655L836.691 545.062c-29.871 29.872-78.3 29.872-108.167 0l-85.767-85.764h137.131v-152.973H642.757l85.767-85.764c29.869-29.872 78.296-29.872 108.167 0l108.166 108.166c29.872 29.87 29.872 78.3 0 108.169z"  horiz-adv-x="1024" />

    
    <glyph glyph-name="menzhenguahao" unicode="&#58892;" d="M953.6 243.2l-70.4-70.4c-51.2-51.2-172.8-166.4-172.8-166.4l-64-70.4C576-140.8 448-140.8 371.2-64c0 0-89.6 64-160 140.8-76.8 76.8-140.8 166.4-140.8 166.4C-6.4 320-6.4 448 70.4 524.8c0 0 57.6 76.8 128 153.6C275.2 755.2 371.2 832 371.2 832 448 908.8 576 908.8 652.8 832c0 0 89.6-64 160-140.8 76.8-76.8 140.8-166.4 140.8-166.4 76.8-76.8 76.8-204.8 0-281.6zM921.6 512s-57.6 83.2-128 153.6c-76.8 70.4-153.6 128-153.6 128C569.6 864 454.4 864 384 793.6c0 0-89.6-70.4-160-140.8C160 582.4 108.8 512 108.8 512 38.4 441.6 38.4 326.4 108.8 256c0 0 57.6-83.2 128-153.6 70.4-70.4 147.2-128 147.2-128 70.4-70.4 185.6-70.4 256 0l64 64 153.6 153.6c57.6 64 64 64 64 64 64 70.4 64 185.6 0 256z m-166.4-236.8H608V128c0-25.6-19.2-44.8-44.8-44.8H460.8c-25.6 0-44.8 19.2-44.8 44.8V275.2H268.8c-25.6 0-44.8 19.2-44.8 44.8V428.8c0 25.6 19.2 44.8 44.8 44.8h147.2V614.4c0 25.6 19.2 44.8 44.8 44.8h108.8c25.6 0 44.8-19.2 44.8-44.8v-147.2h147.2c25.6 0 44.8-19.2 44.8-44.8V320c-6.4-25.6-25.6-44.8-51.2-44.8z m0 153.6h-192v192H460.8v-192h-192V320h192v-192h108.8V320h192l-6.4 108.8z"  horiz-adv-x="1024" />

    
    <glyph glyph-name="paidui" unicode="&#58880;" d="M965.683-9.874c-12.538 0-22.684 10.142-22.684 22.684 0 89.384-34.779 173.498-97.937 236.853-8.838 8.884-8.817 23.238 0.045 32.078 8.884 8.841 23.238 8.841 32.076-0.043 71.709-71.907 111.187-167.409 111.187-268.887 0-12.542-10.149-22.684-22.687-22.684zM610.591 348.887c-1.588-0.195-3.107-0.697-4.755-0.531-183.292-0.071-333.794-150.572-333.794-335.546 0-12.543-10.148-22.684-22.684-22.684-12.54 0-22.684 10.142-22.684 22.684 0 171.080 113.403 316.112 268.969 364.018-74.736 40.072-125.709 118.907-125.709 209.467 0 131.011 106.575 237.583 237.586 237.583 130.992 0 237.565-106.573 237.565-237.583-0.001-129.951-104.93-235.741-234.495-237.409zM607.52 778.512c-105.998 0-192.218-86.216-192.218-192.218 0-105.979 86.219-192.194 192.218-192.194 105.979 0 192.197 86.216 192.197 192.194 0 106.001-86.219 192.218-192.197 192.218zM344.856 365.609c-145.497 0-263.858-125.979-263.858-280.849 0-12.538-10.144-22.684-22.684-22.684-12.538 0-22.684 10.147-22.684 22.684 0 143.732 88.677 265.807 211.263 309.164-57.702 35.582-96.646 101.367-96.646 176.685 0 112.936 87.305 204.823 194.611 204.823 12.54 0 22.684-10.147 22.684-22.684 0-12.535-10.144-22.684-22.684-22.684-82.296 0-149.243-71.528-149.243-159.455 0-87.922 66.945-159.452 149.243-159.452 12.54 0 22.684-10.148 22.684-22.684 0-0.032-0.016-0.058-0.016-0.091 0-0.030 0.016-0.056 0.016-0.088-0.001-12.54-10.145-22.687-22.686-22.687z"  horiz-adv-x="1024" />

    
    <glyph glyph-name="shezhi" unicode="&#58893;" d="M994.86408 506.52a98.848 98.848 0 0 1-68.88 29.336c-5.08 0.536-23.496 2.392-49.968 4.928a391.984 391.984 0 0 1-45.008 79.048c12.264 26.624 20.152 43.872 20.088 43.992 27.464 47.64 11.168 108.752-36.384 136.312L723.14408 853.296a99.856 99.856 0 0 1-50.056 13.504c-35.544 0-68.672-19.072-84.824-47.216 0 0-11.608-16.136-29.824-41.632a393.76 393.76 0 0 1-90.944-0.144c-17.008 24.088-28.176 39.744-28.328 39.744a100.128 100.128 0 0 1-86.552 49.936c-17.344 0-34.504-4.584-49.656-13.248l-91.84-52.76c-47.736-27.464-64.256-88.616-38.2-133.672 0 0 8.968-19.904 23.008-50.648a358.296 358.296 0 0 1-21.056-31.96 372.144 372.144 0 0 1-20.952-42.36c-32.472-2.952-53.8-5.008-54.04-5.136C45.11208 537.624 0.41608 492.976 0.24808 438.056L0.00008 332.184c-0.064-55.04 44.608-99.928 96.616-99.928h0.04s23.808-2.392 60.368-5.848a391.424 391.424 0 0 1 40.2-69.064c-14.728-31.84-24.352-53.008-24.28-53.128a99.16 99.16 0 0 1-10.04-75.6 99.192 99.192 0 0 1 46.4-60.744l91.6-53.16a100.136 100.136 0 0 1 50.056-13.496c35.512 0 68.648 19.072 84.768 47.216 0 0 14.144 19.576 35.632 49.784 26.56-2.888 53.336-3.168 79.928-0.68 20.032-28.392 33.376-47.072 33.496-47.072a100.224 100.224 0 0 1 86.584-49.968c17.368 0 34.56 4.6 49.664 13.288l91.808 52.704a99.256 99.256 0 0 1 46.712 60.624 99.088 99.088 0 0 1-9.04 74.312c-2.208 4.928-10.656 23.64-22.888 50.448a374.088 374.088 0 0 1 26.384 39.216 362.928 362.928 0 0 1 17.312 34.144c31.728 2.896 52.552 4.896 52.704 5.016 54.92 0.096 99.632 44.776 99.72 99.632L1024.00008 435.816a99.36 99.36 0 0 1-29.136 70.704z m-32.264-176.48c-0.032-21.312-17.432-38.656-41.816-38.808-0.064 0-29.696-2.864-73.272-6.776a30.576 30.576 0 0 1-25.64-19.104c-6.832-17.072-13.432-30.92-20.744-43.576-8.896-15.248-19.552-30.296-32.592-45.928a30.544 30.544 0 0 1-4.328-32.296c18.624-40.648 31.072-68.408 31.104-68.472 0.416-0.92 0.888-1.824 1.4-2.72a38.456 38.456 0 0 0 3.824-29.336 38.616 38.616 0 0 0-18.144-23.52l-91.84-52.704c-5.84-3.376-12.48-5.168-19.184-5.168-13.88 0-26.776 7.464-35.312 21.992-0.032 0.032-18.504 25.936-45.24 63.992a30.656 30.656 0 0 1-29.376 12.688 328.48 328.48 0 0 0-99.416 0.864 30.656 30.656 0 0 1-29.784-12.504c-27.168-38.296-46.024-64.416-47.728-67.008-10.264-17.76-35.008-24.48-52.936-14.056l-91.6 53.16c-8.936 5.192-15.328 13.544-17.984 23.544s-1.272 20.448 5.312 32.088c0.032 0.064 13.368 29.368 33.144 71.992a30.528 30.528 0 0 1-3.912 32.024 330.784 330.784 0 0 0-50.056 85.928 30.536 30.536 0 0 1-25.576 19.216c-46.376 4.328-78.08 7.52-81.112 7.672a38.856 38.856 0 0 0-38.664 38.856l0.256 105.816c0.056 21.336 17.416 38.68 38.68 38.68 0.984 0 2.192 0.064 3.176 0.152 0.056 0 30.368 2.952 74.888 6.928a30.544 30.544 0 0 1 25.92 19.784c7.152 19.168 14.888 35.88 23.728 51.072 7.24 12.504 16 25.104 27.552 39.696a30.528 30.528 0 0 1 3.832 31.712c-18.232 39.808-30.488 66.976-31.856 69.68a38.808 38.808 0 0 0 14.296 52.888l91.792 52.728c18.072 10.352 41.888 4.712 54.512-16.808 0.032-0.032 16.416-23.048 40.472-57.144a30.56 30.56 0 0 1 30.176-12.504c35.28 6.072 72.528 6.192 109.176 0.208a30.64 30.64 0 0 1 29.824 12.464c24.024 33.832 40.264 56.352 41.96 58.944 10.272 17.712 34.92 24.512 52.92 14.056l91.6-53.168a38.384 38.384 0 0 0 17.992-23.544c2.656-10.016 1.256-20.464-5.312-32.072 0-0.032-11.512-25.296-28.944-62.96a30.512 30.512 0 0 1 3.968-32.056c23.464-29.016 41.632-60.952 54.024-94.944a30.512 30.512 0 0 1 25.84-19.968c41.496-3.936 69.512-6.808 69.568-6.808 11.288-0.952 22.328-3.496 30.392-11.52a38.528 38.528 0 0 0 11.312-27.432l-0.272-105.92zM603.66408 541.984a177.816 177.816 0 0 1-89.128 24.024c-63.24 0-122.216-33.936-153.944-88.584-49.184-84.832-20.224-193.856 64.56-243.072a177.76 177.76 0 0 1 89.12-24.032c63.24 0 122.224 33.936 153.952 88.584a176.6 176.6 0 0 1 18.056 134.904 176.568 176.568 0 0 1-82.616 108.176z m11.672-212.4a117.168 117.168 0 0 0-101.064-58.144c-20.448 0-40.648 5.44-58.44 15.792-55.632 32.296-74.648 103.832-42.352 159.504a117.16 117.16 0 0 0 101.056 58.144c20.448 0 40.656-5.432 58.448-15.792a115.944 115.944 0 0 0 54.224-70.976c8-30.112 3.8-61.576-11.872-88.528z"  horiz-adv-x="1024" />

    
    <glyph glyph-name="gerenzhongxinhui" unicode="&#58901;" d="M503.808 837.12c118.272 0 214.528-96.256 214.528-214.528s-96.256-214.528-214.528-214.528-215.04 95.744-215.04 214.528 96.768 214.528 215.04 214.528m0 52.224c-147.456 0-266.752-119.296-266.752-266.752s119.296-266.752 266.752-266.752 266.752 119.296 266.752 266.752c0 146.944-119.296 266.752-266.752 266.752zM613.888 262.656c81.92 0 159.232-32.256 217.6-90.624 58.368-58.368 90.624-135.68 90.624-217.6v-22.016H101.888v22.016c0 81.92 32.256 159.232 90.624 217.6C250.88 230.4 328.192 262.656 410.112 262.656h203.776m0 49.664H410.112c-197.12 0-358.4-161.28-358.4-358.4v-60.416c0-4.096 0.512-7.68 0.512-11.776h919.04c0 4.096 0.512 7.68 0.512 11.776V-46.08c0.512 197.12-160.768 358.4-357.888 358.4zM422.912 622.592h-5.12c-11.776 0-21.504 9.728-21.504 21.504v39.424c0 11.776 9.728 21.504 21.504 21.504h5.12c11.776 0 21.504-9.728 21.504-21.504v-39.424c0.512-11.776-9.216-21.504-21.504-21.504zM589.312 622.592h-5.12c-11.776 0-21.504 9.728-21.504 21.504v39.424c0 11.776 9.728 21.504 21.504 21.504h5.12c11.776 0 21.504-9.728 21.504-21.504v-39.424c0.512-11.776-9.216-21.504-21.504-21.504z"  horiz-adv-x="1024" />

    
    <glyph glyph-name="yiyuan1" unicode="&#58891;" d="M963-63.10000000000002H410.5V837H963v-900.1z m-482.5 70H893V767H480.5v-760.1zM480.5-63.10000000000002H63V675h417.5v-738.1z m-347.5 70h277.5V605H133v-598.1zM574.2 238h227.2v-237.3H574.2zM238.5 501.4h70.7V437h-70.7zM238.5 360.5h70.7v-64.4h-70.7zM238.5 220.20000000000005h70.7v-64.4h-70.7zM652.9 640h70v-192.3h-70zM589.8 578.9h192.3v-70H589.8z"  horiz-adv-x="1024" />

    
    <glyph glyph-name="bangongdalou" unicode="&#59013;" d="M904.533333 42.666667V554.666667a68.266667 68.266667 0 0 1-68.266666 68.266666h-102.4a34.133333 34.133333 0 0 0-34.133334 34.133334V759.466667a68.266667 68.266667 0 0 1-68.266666 68.266666H187.733333a68.266667 68.266667 0 0 1-68.266666-68.266666v-716.8a34.133333 34.133333 0 0 0-34.133334-34.133334H34.133333a34.133333 34.133333 0 1 1 0-68.266666h955.733334a34.133333 34.133333 0 1 1 0 68.266666h-51.2a34.133333 34.133333 0 0 0-34.133334 34.133334zM324.7104 213.418667h-34.133333a34.133333 34.133333 0 0 0-34.133334 34.133333v34.133333a34.133333 34.133333 0 0 0 34.133334 34.133334h34.133333a34.133333 34.133333 0 0 0 34.133333-34.133334v-34.133333a34.133333 34.133333 0 0 0-34.133333-34.133333z m0 204.8h-34.133333a34.133333 34.133333 0 0 0-34.133334 34.133333v34.133333a34.133333 34.133333 0 0 0 34.133334 34.133334h34.133333a34.133333 34.133333 0 0 0 34.133333-34.133334v-34.133333a34.133333 34.133333 0 0 0-34.133333-34.133333z m0 204.8h-34.133333a34.133333 34.133333 0 0 0-34.133334 34.133333v34.133333a34.133333 34.133333 0 0 0 34.133334 34.133334h34.133333a34.133333 34.133333 0 0 0 34.133333-34.133334v-34.133333a34.133333 34.133333 0 0 0-34.133333-34.133333z m204.8-409.6h-34.133333a34.133333 34.133333 0 0 0-34.133334 34.133333v34.133333a34.133333 34.133333 0 0 0 34.133334 34.133334h34.133333a34.133333 34.133333 0 0 0 34.133333-34.133334v-34.133333a34.133333 34.133333 0 0 0-34.133333-34.133333z m0 204.8h-34.133333a34.133333 34.133333 0 0 0-34.133334 34.133333v34.133333a34.133333 34.133333 0 0 0 34.133334 34.133334h34.133333a34.133333 34.133333 0 0 0 34.133333-34.133334v-34.133333a34.133333 34.133333 0 0 0-34.133333-34.133333z m0 204.8h-34.133333a34.133333 34.133333 0 0 0-34.133334 34.133333v34.133333a34.133333 34.133333 0 0 0 34.133334 34.133334h34.133333a34.133333 34.133333 0 0 0 34.133333-34.133334v-34.133333a34.133333 34.133333 0 0 0-34.133333-34.133333z m238.404267-614.4h-68.266667a34.133333 34.133333 0 0 0-34.133333 34.133333v136.533333a34.133333 34.133333 0 0 0 34.133333 34.133334h68.266667a34.133333 34.133333 0 0 0 34.133333-34.133334v-136.533333a34.133333 34.133333 0 0 0-34.133333-34.133333z"  horiz-adv-x="1024" />

    
    <glyph glyph-name="zhuan" unicode="&#58954;" d="M512-128a512 512 0 1 0 512 512 512 512 0 0 0-512-512z m319.203556 624.924444h-365.226667q10.922667 42.325333 20.48 84.650667H790.755556v45.511111H496.696889l15.701333 78.506667-50.517333 4.323555q-10.922667-54.613333-17.066667-82.602666H264.590222v-45.511111h169.984q-12.288-51.2-21.162666-84.650667H218.168889v-47.786667h181.589333q-19.797333-64.170667-46.421333-135.850666h337.237333a645.176889 645.176889 0 0 0-148.821333-129.706667q-79.189333 27.306667-147.456 45.511111l-25.941333-38.229333a1712.355556 1712.355556 0 0 0 316.757333-119.466667l27.306667 43.008q-61.44 29.354667-118.101334 49.834667a590.904889 590.904889 0 0 1 154.282667 152.234666v42.325334H423.651556q20.081778 57.344 29.354666 90.112h378.197334v47.786666z"  horiz-adv-x="1024" />

    
    <glyph glyph-name="shezhi1" unicode="&#58887;" d="M950.8 452.7c10.8 65.8 1.3 132.4-27.6 192.4-4.7 9.8-15.5 18.3-26.2 20.1-10.7 1.8-23.2 0-30.9-7.7L736.6 528.2c-25.1-25.1-63.7-27.4-88.9-2.3-25.1 25.1-22.9 63.7 2.3 88.9l128.9 128.9c7.7 7.7 10.6 19.3 8.7 30.1-1.9 10.7-9.2 20.2-19.1 24.8C709 826.1 642.9 835.2 577.6 824.3c-67-11.1-127.8-42.2-175.7-90.1-49.3-49.3-80.8-111.8-91.1-180.9-2.7-18.3 9.8-35.2 28.1-38 18.3-2.7 35.3 9.9 38 28.1 8.2 54.8 30.3 107.3 69.4 146.3 64.2 64.2 154.3 92 241 70.5l-91.4-91.4c-51.2-51.2-52-133.7-0.8-184.8 51.2-51.2 133.7-50.4 184.8 0.8l92.7 92.7c19.7-45.2 14.5-74.4 8.6-110.3-8.7-53.2-31.9-103.4-70.3-141.9-45.1-45.1-103.9-72.7-167.2-76.1-42.9-2.3-87.2 7.6-125.8 26.1-12.8 6.2-29.3 4.8-39.3-5.3L303.8 95.4c-25.1-25.1-63.7-27.4-88.9-2.3-25.1 25.1-22.9 63.7 2.3 88.9l175.1 175.1c13.1 13.1 9.6 37.6-3.4 50.7s-37.6 16.5-50.7 3.4L163.1 236.1c-51.2-51.2-52-133.7-0.8-184.8 51.2-51.2 133.7-50.4 184.8 0.8l158.7 158.7c45.5-19.5 92.7-27.9 138.7-25.5 79.8 4.2 156.8 36 213.6 92.8 48.5 48.4 81.7 107.6 92.7 174.6z"  horiz-adv-x="1024" />

    
    <glyph glyph-name="huahui-" unicode="&#58899;" d="M593.917952 508.545024h-144.723968c-11.309056 0-20.48 9.168896-20.48 20.48v69.632c0 11.311104 9.170944 20.48 20.48 20.48h144.723968c11.309056 0 20.48-9.168896 20.48-20.48v-69.632c0-11.309056-9.170944-20.48-20.48-20.48z m-124.243968 40.96h103.763968v28.672h-103.763968v-28.672zM794.621952 493.326336H263.50592v55.922688h531.116032zM794.621952 175.08556799999997c0-16.295936-11.001856-29.507584-24.576-29.507584H288.08192c-13.574144 0-24.576 13.211648-24.576 29.507584V442.556416c0 16.295936 11.001856 29.507584 24.576 29.507584h481.964032c13.574144 0 24.576-13.211648 24.576-29.507584v-267.470848zM496.984064 378.95372799999996h49.143808v-166.572032h-49.143808zM438.269952 320.23961599999996h166.572032v-49.143808h-166.572032z"  horiz-adv-x="1024" />

    
    <glyph glyph-name="yiliaozhongxin" unicode="&#58917;" d="M415.7 653h-45.1v45.1c0 15.5-12.7 28.2-28.2 28.2s-28.2-12.7-28.2-28.2V653h-45.1c-15.5 0-28.2-12.7-28.2-28.2s12.7-28.2 28.2-28.2h45.1v-45.1c0-15.5 12.7-28.2 28.2-28.2s28.2 12.7 28.2 28.2v45.1h45.1c15.5 0 28.2 12.7 28.2 28.2S431.2 653 415.7 653zM342.4 509.7c-23.1 0-41.8 18.8-41.8 41.8V583h-31.5c-23.1 0-41.8 18.8-41.8 41.8s18.8 41.8 41.8 41.8h31.5v31.5c0 23.1 18.8 41.8 41.8 41.8 23.1 0 41.8-18.8 41.8-41.8v-31.5h31.5c23.1 0 41.8-18.8 41.8-41.8S438.7 583 415.7 583h-31.5v-31.5c0-23-18.8-41.8-41.8-41.8z m-73.3 129.7c-8 0-14.6-6.5-14.6-14.6 0-8 6.5-14.6 14.6-14.6h45.1c7.5 0 13.6-6.1 13.6-13.6v-45.1c0-8 6.5-14.6 14.6-14.6 8 0 14.6 6.5 14.6 14.6v45.1c0 7.5 6.1 13.6 13.6 13.6h45.1c8 0 14.6 6.5 14.6 14.6 0 8-6.5 14.6-14.6 14.6h-45.1c-7.5 0-13.6 6.1-13.6 13.6v45.1c0 8-6.5 14.6-14.6 14.6-8 0-14.6-6.5-14.6-14.6V653c0-7.5-6.1-13.6-13.6-13.6h-45.1zM551.1-66H133.7c-7.5 0-13.6 6.1-13.6 13.6V752.2c0 45.1 36.7 81.8 81.8 81.8H483c45.1 0 81.8-36.7 81.8-81.8v-804.5c-0.1-7.6-6.2-13.7-13.7-13.7z m-403.8 27.3h390.2V752.2c0 30.1-24.5 54.5-54.5 54.5H201.8c-30.1 0-54.5-24.5-54.5-54.5v-790.9zM412.6-66H272.2c-7.5 0-13.6 6.1-13.6 13.6V173c0 45.1 36.7 81.8 81.8 81.8h4c45.1 0 81.8-36.7 81.8-81.8v-225.3c0-7.6-6.1-13.7-13.6-13.7z m-126.8 27.3h113.1V173c0 30.1-24.5 54.5-54.5 54.5h-4c-30.1 0-54.5-24.5-54.5-54.5v-211.7zM888.4-66H551.1c-7.5 0-13.6 6.1-13.6 13.6V514.1c0 7.5 6.1 13.6 13.6 13.6h269.1c45.1 0 81.8-36.7 81.8-81.8v-498.3c0-7.5-6.1-13.6-13.6-13.6z m-323.7 27.3h310V445.9c0 30.1-24.5 54.5-54.5 54.5H564.7v-539.1zM948.4-66H75.6c-7.5 0-13.6 6.1-13.6 13.6s6.1 13.6 13.6 13.6h872.7c7.5 0 13.6-6.1 13.6-13.6s-6-13.6-13.5-13.6z"  horiz-adv-x="1024" />

    
    <glyph glyph-name="xuanzhong" unicode="&#59182;" d="M516.933333-114.8c-273.733333 0-495.733333 222-495.733333 495.733333S243.2 876.666667 516.933333 876.666667 1012.666667 654.666667 1012.666667 380.933333 790.666667-114.8 516.933333-114.8z m0 908.933333c-228.133333 0-413.066667-184.933333-413.066666-413.066666C103.866667 152.933333 288.8-32 516.933333-32c228.133333 0 413.066667 184.933333 413.066667 413.066667 0 228-184.933333 413.066667-413.066667 413.066666z m-23.2-620.133333c-7.733333-7.733333-18.266667-12.133333-29.2-12.133333s-21.466667 4.4-29.2 12.133333L289.333333 320c-16.133333 16.133333-16.133333 42.266667 0 58.4 16.133333 16.133333 42.266667 16.133333 58.4 0l116.8-116.8 262.933334 262.933333c16.266667 15.6 42 15.466667 57.866666-0.533333 16-16 16.133333-41.733333 0.533334-57.866667L493.733333 174z m0 0"  horiz-adv-x="1024" />

    
    <glyph glyph-name="none_icon" unicode="&#59014;" d="M467.968 862.208c-265.216-29.184-456.192-257.536-434.176-522.24s257.536-456.192 522.752-434.176 456.192 257.536 434.176 522.752-258.048 455.68-522.752 433.664z m7.168-73.216c220.672 22.016 419.328-139.776 441.344-368.128 22.016-220.672-139.776-419.328-368.128-441.344-220.672-22.016-419.328 139.776-441.344 368.128-22.016 220.16 147.456 419.328 368.128 441.344z"  horiz-adv-x="1024" />

    
    <glyph glyph-name="yishengmenzhen" unicode="&#58942;" d="M620.544 703.488l210.944-210.944a153.6 153.6 0 0 0 0-217.088l-210.944-210.944a153.6 153.6 0 0 0-217.088 0l-210.944 210.944a153.6 153.6 0 0 0 0 217.088l210.944 210.944a153.6 153.6 0 0 0 217.088 0zM460.8 435.2H307.2v-102.4h153.6v-153.6h102.4v153.6h153.6V435.2h-153.6V588.8H460.8z"  horiz-adv-x="1024" />

    
    <glyph glyph-name="error" unicode="&#58881;" d="M280.422 379.384c0-0.00426667 0-0.0192 0-0.0245333 0-195.909 158.817-354.73 354.73-354.73 195.909 0 354.73 158.817 354.73 354.73 0 0.00533333 0 0.0202667 0 0.0245333 0 0.0032 0 0.0181333 0 0.0234667 0 195.909-158.817 354.73-354.73 354.73-195.909 0-354.73-158.817-354.73-354.73 0-0.00533333 0-0.0202667 0-0.0245333ZM282.916 376.749c0-194.885 157.983-352.869 352.869-352.869s352.869 157.983 352.869 352.869c0 0 0 0 0 0 0 194.885-157.983 352.869-352.869 352.869-194.885 0-352.869-157.983-352.869-352.869 0 0 0 0 0 0Z"  horiz-adv-x="1265" />

    
    <glyph glyph-name="yisheng" unicode="&#58888;" d="M512.096 256a256 256 0 0 0-254.272 226.88c-38.624 21.952-33.6 29.12-33.6 61.12 0 32 6.752 64 13.696 87.36C280.064 773.344 373.344 832 512.096 832 713.504 832 800 716.16 800 544c0-26.368-12.8-42.784-32.64-50.112A255.968 255.968 0 0 0 512.128 256zM296.64 542.72h23.584V512A191.968 191.968 0 1 1 704 512c0 24.704 12.608 34.912 31.936 39.904C733.632 687.328 670.368 768 512.096 768c-111.744 0-153.92-23.968-209.568-136.64-5.376-10.88-9.088-22.72-13.056-34.464-3.456-10.176-1.088-28.224 7.136-54.144z m247.488-378.688v-36c0-3.744-0.64-7.36-1.824-10.72a48 48 0 1 0-60.352 0 31.936 31.936 0 0 0-1.824 10.72v36a128.224 128.224 0 0 0-90.4 86.624 127.616 127.616 0 0 1-37.536-90.56v-160h319.872v32a32 32 0 1 0 64 0v-64a32 32 0 0 0-32-32H320.192a32 32 0 0 0-32 32v192c0 61.088 28.736 117.44 76.608 153.472a32 32 0 0 0 35.296 2.112A32 32 0 0 0 448.128 288a64 64 0 1 1 127.968 0 32 32 0 0 0 49.856 26.56 32 32 0 0 0 35.424-2.496 191.712 191.712 0 0 0 74.656-152v-30.496a32 32 0 1 0-64 0v30.528c0 34.56-13.76 66.88-37.504 90.56a128.224 128.224 0 0 0-90.432-86.624zM640.064 672c0-55.488 51.2-96 95.968-96a32 32 0 0 0 0-64c-48.768 0-99.68 26.08-130.624 69.056C563.2 535.36 485.28 512 388.16 512H256.224c-17.664 0-17.664 64 0 64h131.968c117.696 0 187.936 36.96 187.936 96a32 32 0 1 0 63.968 0z"  horiz-adv-x="1024" />

    
    <glyph glyph-name="shijian" unicode="&#59752;" d="M512 832C265 832 64 631 64 384s201-448 448-448 448 201 448 448S759 832 512 832z m0-853.3c-223.5 0-405.3 181.8-405.3 405.3S288.5 789.3 512 789.3 917.3 607.5 917.3 384 735.5-21.3 512-21.3zM768.2 384c0-11.8-9.6-21.3-21.3-21.3H512c-11.8 0-21.3 9.6-21.3 21.3V648.9c0 11.8 9.6 21.3 21.3 21.3s21.3-9.6 21.3-21.3v-243.6h213.6c11.8 0 21.3-9.5 21.3-21.3z"  horiz-adv-x="1024" />

    
    <glyph glyph-name="yiyuan2" unicode="&#59250;" d="M881.391025-62.708971H142.608975c-37.902238 0-68.724221 30.821983-68.724221 68.724221V727.624175c0 56.844659 46.24116 103.08582 103.08582 103.08582h429.52459c56.844659 0 103.08582-46.24116 103.08582-103.08582v-240.533239h171.810041c37.902238 0 68.724221-30.830169 68.724221-68.724221v-412.351465c-0.001023-37.903262-30.821983-68.724221-68.724221-68.724221z m-171.810041 68.723197h171.810041v412.351466H709.580984v-412.351466z m-532.61041 755.971548c-18.942421 0-34.361599-15.410991-34.361599-34.361599v-721.608925h498.247788V727.624175c0 18.950607-15.419178 34.361599-34.361599 34.361599H176.970574zM563.537793 495.677499H434.680007V624.535285h-85.904509v-128.857786H219.917712v-85.904509h128.857786v-128.857787h85.904509V409.77299h128.857786z"  horiz-adv-x="1024" />

    
    <glyph glyph-name="yiliao_" unicode="&#59020;" d="M512-115.2c-12.8 0-24 4.8-32 14.4L264 156.8c-11.2 12.8-9.6 33.6 3.2 44.8 12.8 11.2 33.6 9.6 44.8-3.2L512-38.4l200 236.8c11.2 12.8 32 16 44.8 3.2 12.8-11.2 16-32 3.2-44.8L544-100.8c-8-8-19.2-14.4-32-14.4z m-17.6 56zM896 438.4c-6.4 0-12.8 1.6-19.2 6.4-14.4 11.2-17.6 30.4-6.4 44.8 16 20.8 25.6 44.8 32 68.8 3.2 11.2 3.2 24 3.2 36.8 0 99.2-81.6 179.2-182.4 179.2-80 0-152-52.8-174.4-129.6-4.8-14.4-17.6-24-32-22.4h-9.6c-14.4 0-25.6 9.6-30.4 22.4-22.4 76.8-94.4 129.6-174.4 129.6-100.8 0-182.4-80-182.4-179.2 0-12.8 1.6-24 3.2-36.8 4.8-24 16-48 30.4-67.2 9.6-14.4 6.4-33.6-6.4-44.8-14.4-9.6-33.6-8-44.8 6.4C81.6 480 68.8 512 60.8 545.6c-3.2 16-4.8 33.6-4.8 49.6 0 134.4 110.4 243.2 246.4 243.2 86.4 0 166.4-46.4 209.6-116.8 44.8 70.4 123.2 116.8 209.6 116.8 136 0 246.4-108.8 246.4-243.2 0-16-1.6-33.6-4.8-49.6-8-33.6-20.8-65.6-43.2-94.4-4.8-9.6-14.4-12.8-24-12.8zM476.8 188.8h-6.4c-9.6 1.6-17.6 8-22.4 16l-107.2 190.4-62.4-91.2c-6.4-8-16-14.4-25.6-14.4l-164.8-3.2c-17.6 0-32 14.4-32 32s14.4 32 32 32l148.8 3.2 81.6 123.2c6.4 9.6 17.6 14.4 27.2 14.4 11.2 0 20.8-6.4 27.2-16L486.4 272l83.2 65.6c6.4 4.8 12.8 6.4 19.2 6.4h328c17.6 0 32-14.4 32-32s-14.4-32-32-32H600L496 196.8c-6.4-4.8-12.8-8-19.2-8z"  horiz-adv-x="1024" />

    
    <glyph glyph-name="yijike" unicode="&#58923;" d="M348.032 209.408m-11.136 0a11.136 11.136 0 1 1 22.272 0 11.136 11.136 0 1 1-22.272 0ZM998.016 112.896L697.856 508.544v262.4 3.584c0.128 0 0.128-0.128 0.128-0.128l0.128 0.128c0 0.256-0.256 0.384-0.256 0.512 0 2.176 1.664 3.84 3.84 4.096 0 0.128 0 0.128 0.128 0.256h0.64l22.912-0.384c14.208 0 25.856 11.52 25.856 25.856 0 14.208-11.52 25.856-25.856 25.856H298.368c-14.208 0-25.856-11.52-25.856-25.856 0-14.208 11.52-25.856 25.856-25.856h23.552s0-0.128 0.128-0.128c2.176-0.256 3.968-1.92 3.968-4.224 0-0.256-0.256-0.384-0.256-0.64v-265.472L25.6 112.896C-27.52 42.88 22.4-57.6 110.336-57.6h802.944c87.808-0.128 137.728 100.48 84.736 170.496z m-785.024-20.352c-7.424 0-13.44 6.016-13.44 13.44s6.016 13.44 13.44 13.44 13.44-6.016 13.44-13.44-6.016-13.44-13.44-13.44zM423.68 133.632c-17.792 0-32.256 14.464-32.256 32.256s14.464 32.256 32.256 32.256 32.256-14.464 32.256-32.256-14.336-32.256-32.256-32.256z m86.656 134.528c-7.68 0-13.824 6.144-13.824 13.824 0 7.68 6.144 13.824 13.824 13.824s13.824-6.144 13.824-13.824c0-7.68-6.144-13.824-13.824-13.824z m108.288-211.968c-11.648 0-21.12 9.472-21.12 21.12s9.472 21.12 21.12 21.12 21.12-9.472 21.12-21.12-9.472-21.12-21.12-21.12z m99.84 112.768c-4.48 0-8.192 3.712-8.192 8.192s3.712 8.192 8.192 8.192c4.48 0 8.192-3.712 8.192-8.192s-3.712-8.192-8.192-8.192z"  horiz-adv-x="1024" />

    
    <glyph glyph-name="zongheguanli" unicode="&#58905;" d="M869.9-98H660.8c-66.7 0-120.6 53.9-120.6 120.7V352.8h329.7c66.7 0 120.6-53.9 120.6-120.7v-209.4c0-66.8-53.8-120.7-120.6-120.7z m-511.4 0H151.1c-66.7 0-120.6 53.9-120.6 120.7V232.1c0 66.8 53.8 120.7 120.6 120.7h328v-330.1c0-66.8-53.8-120.7-120.6-120.7z m511.4 512H540.2V742.3C540.2 809.1 594.1 863 660.8 863H870c66.7 0 120.6-53.9 120.6-120.7v-207.7c-0.1-66.2-53.9-120.6-120.7-120.6z m-390.8 0H151.6C84.9 414 31 467.9 31 534.7V742.3C31.1 809.1 84.9 863 151.6 863h207.5c66.7 0 120.6-53.9 120.6-120.7V414h-0.6z"  horiz-adv-x="1024" />

    
    <glyph glyph-name="yishengtuandui" unicode="&#59511;" d="M421.093878 455.053061c-9.404082 0-16.718367 7.314286-16.718368 16.718368 0 15.673469-36.04898 37.616327-92.473469 37.616326S219.428571 486.922449 219.428571 471.771429c0-9.404082-7.314286-16.718367-16.718367-16.718368-9.404082 0-16.718367 7.314286-16.718367 16.718368V590.367347c0 40.75102 53.812245 71.053061 125.910204 71.053061s125.910204-30.82449 125.910204-71.053061v-118.595918c0-9.404082-7.314286-16.718367-16.718367-16.718368zM404.37551 585.142857c0 14.106122-33.436735 35.004082-85.681632 35.004082s-85.681633-20.897959-85.681633-35.004082v-64.261224c20.897959 12.538776 51.2 20.37551 85.681633 20.37551s64.783673-7.836735 85.681632-20.37551V585.142857M311.902041 118.073469c-54.334694 0-105.012245 6.269388-143.151021 18.285715-61.64898 18.808163-74.710204 47.542857-74.710204 67.918367 0 75.755102 53.289796 142.628571 136.359184 171.363265L240.326531 378.77551l7.314285-7.314286c17.240816-17.240816 40.228571-26.122449 64.783674-26.122448 24.032653 0 47.020408 9.404082 64.783673 26.122448l7.314286 7.314286 9.926531-3.134694c83.069388-28.212245 136.359184-95.608163 136.359183-171.363265-0.522449-63.738776-118.073469-86.204082-218.906122-86.204082zM311.902041 311.379592c-69.485714 0-125.910204 56.42449-125.910204 125.910204 0 28.734694 9.926531 56.946939 28.212245 79.412245l1.567347 2.089796 2.612244 1.567347c23.510204 14.106122 57.469388 22.465306 93.518368 22.465306s70.008163-8.359184 93.518367-22.465306l2.612245-1.567347 1.567347-2.089796c18.285714-22.465306 28.212245-50.677551 28.212245-79.412245 0-69.485714-56.42449-125.910204-125.910204-125.910204zM404.37551 437.289796c0 20.37551-6.269388 39.706122-18.808163 55.902041-18.285714 10.44898-45.453061 16.195918-73.665306 16.195918s-55.379592-6.269388-73.665306-16.195918c-12.538776-16.195918-18.808163-35.526531-18.808164-55.902041 0-50.677551 41.273469-92.473469 92.47347-92.473469s92.473469 41.795918 92.473469 92.473469M820.767347 455.053061c-9.404082 0-16.718367 7.314286-16.718367 16.718368 0 15.673469-36.04898 37.616327-92.47347 37.616326s-92.473469-22.465306-92.473469-37.616326c0-9.404082-7.314286-16.718367-16.718368-16.718368-9.404082 0-16.718367 7.314286-16.718367 16.718368V590.367347c0 40.75102 53.812245 71.053061 125.910204 71.053061s125.910204-30.82449 125.910204-71.053061v-118.595918c0-9.404082-7.314286-16.718367-16.718367-16.718368zM804.04898 585.142857c0 14.106122-33.436735 35.004082-85.681633 35.004082s-85.681633-20.897959-85.681633-35.004082v-64.261224c20.897959 12.538776 51.2 20.37551 85.681633 20.37551s64.783673-7.836735 85.681633-20.37551V585.142857M712.097959 118.073469c-54.334694 0-105.012245 6.269388-143.15102 18.285715-61.64898 18.808163-74.710204 47.542857-74.710204 67.918367 0 75.755102 53.289796 142.628571 136.359183 171.363265l9.926531 3.134694 7.314286-7.314286c17.240816-17.240816 40.228571-26.122449 64.783673-26.122448 24.032653 0 47.020408 9.404082 64.783674 26.122448L783.673469 378.77551l9.926531-3.134694c83.069388-28.212245 136.359184-95.608163 136.359184-171.363265 0-63.738776-117.55102-86.204082-217.861225-86.204082zM712.097959 311.379592c-69.485714 0-125.910204 56.42449-125.910204 125.910204 0 28.734694 9.926531 56.946939 28.212245 79.412245l1.567347 2.089796 2.612245 1.567347c23.510204 14.106122 57.469388 22.465306 93.518367 22.465306 36.04898 0 70.008163-8.359184 93.518368-22.465306l2.612244-1.567347 1.567347-2.089796c18.285714-22.465306 28.212245-50.677551 28.212245-79.412245-0.522449-69.485714-56.946939-125.910204-125.910204-125.910204zM804.04898 437.289796c0 20.37551-6.269388 39.706122-18.808164 55.902041-18.285714 10.44898-45.453061 16.195918-73.665306 16.195918s-55.379592-6.269388-73.665306-16.195918c-12.538776-16.195918-18.808163-35.526531-18.808163-55.902041 0-50.677551 41.273469-92.473469 92.473469-92.473469s92.473469 41.795918 92.47347 92.473469M648.359184 465.502041c-11.493878 0-20.897959 9.404082-20.89796 20.897959 0 19.330612-44.930612 47.020408-115.461224 47.020408s-115.461224-28.212245-115.461224-47.020408c0-11.493878-9.404082-20.897959-20.89796-20.897959s-20.897959 9.404082-20.897959 20.897959V634.77551c0 50.677551 67.395918 88.816327 157.257143 88.816327s157.257143-38.138776 157.257143-88.816327v-147.853061c0-12.016327-9.404082-21.420408-20.897959-21.420408zM627.461224 634.77551c0 19.330612-44.930612 47.020408-115.461224 47.020408s-115.461224-28.212245-115.461224-47.020408v-86.204081c28.212245 17.240816 68.963265 27.167347 115.461224 27.167347s87.24898-10.44898 115.461224-27.167347V634.77551M537.077551 610.220408h-50.155102c-9.404082 0-16.718367 7.314286-16.718367 16.718368 0 9.404082 7.314286 16.718367 16.718367 16.718367h50.155102c9.404082 0 16.718367-7.314286 16.718367-16.718367 0-9.404082-7.314286-16.718367-16.718367-16.718368zM512 585.142857c-9.404082 0-16.718367 7.314286-16.718367 16.718367v50.155103c0 9.404082 7.314286 16.718367 16.718367 16.718367s16.718367-7.314286 16.718367-16.718367v-50.155103c0-9.404082-7.314286-16.718367-16.718367-16.718367zM512 44.408163c-67.918367 0-131.657143 7.836735-179.2 22.465306-77.322449 23.510204-93.518367 59.559184-93.518367 85.159184 0 94.563265 66.873469 178.677551 170.318367 213.681633l12.016327 4.179592 9.404081-8.881633c21.942857-21.420408 50.155102-32.914286 80.457143-32.914286 30.302041 0 59.036735 11.493878 80.457143 32.914286l9.404082 8.881633 12.016326-4.179592c103.444898-35.526531 170.318367-119.118367 170.318367-213.681633 1.044898-79.412245-145.763265-107.62449-271.673469-107.62449zM512 286.302041c-86.726531 0-157.257143 70.530612-157.257143 157.257143 0 36.04898 12.538776 71.053061 35.004082 99.265306l2.089796 2.612245 3.134694 2.089796c29.257143 17.763265 71.57551 28.212245 116.506122 28.212245s87.24898-10.44898 116.506122-28.212245l3.134694-2.089796 2.089796-2.612245c22.987755-27.689796 35.004082-63.216327 35.004082-99.265306 1.044898-86.726531-69.485714-157.257143-156.212245-157.257143zM627.461224 443.559184c0 25.6-8.359184 49.632653-23.510204 70.008163-22.465306 12.538776-56.42449 20.37551-91.95102 20.37551s-68.963265-7.314286-91.95102-20.37551c-15.673469-20.37551-23.510204-44.408163-23.510204-70.008163 0-63.738776 51.722449-115.461224 115.461224-115.461225s115.461224 51.722449 115.461224 115.461225"  horiz-adv-x="1024" />

    
    <glyph glyph-name="yisheng1" unicode="&#59510;" d="M805.616327 419.526531c-3.657143 0-295.706122 103.967347-295.706123 103.967347s-287.346939-103.967347-291.004082-103.967347c-44.408163 0-79.934694-39.183673-79.934693-87.24898s36.04898-87.24898 79.934693-87.24898c3.657143 0 7.314286 0.522449 10.971429 1.044898 34.481633-134.791837 176.587755-233.534694 282.644898-233.534693s248.163265 98.742857 282.644898 233.534693c3.657143-0.522449 7.314286-1.044898 10.971429-1.044898 44.408163 0 79.934694 39.183673 79.934693 87.24898s-36.571429 87.24898-80.457142 87.24898zM512-11.493878c-57.991837 0-124.342857 26.122449-182.334694 71.053062-56.42449 43.885714-97.697959 100.832653-117.55102 161.959183-54.334694 3.657143-97.17551 51.722449-97.17551 110.759184 0 59.559184 44.408163 108.669388 99.787755 110.759184C237.714286 450.35102 396.538776 507.820408 501.55102 545.959184l7.836735 3.134694 7.836735-2.612245c107.102041-38.138776 268.538776-95.608163 291.52653-102.922449 55.379592-2.089796 99.787755-50.677551 99.787756-110.759184 0-59.036735-42.840816-107.102041-97.175511-110.759184-19.853061-61.126531-61.126531-117.55102-117.55102-161.959183-57.469388-45.453061-123.820408-71.57551-181.812245-71.575511z m-264.881633 283.689796l5.22449-20.37551c14.628571-57.469388 52.767347-112.84898 106.579592-154.644898C407.510204 58.514286 464.979592 35.526531 512 35.526531s104.489796 22.987755 153.6 61.12653c53.812245 42.318367 91.428571 97.17551 106.579592 154.644898l5.22449 20.37551 20.897959-3.134693c2.612245-0.522449 5.22449-0.522449 7.314286-0.522449 31.346939 0 56.42449 28.734694 56.424489 63.738775s-25.6 63.738776-56.424489 63.738776c-5.22449 0-5.22449 0-55.379592 17.763265-24.555102 8.881633-59.036735 20.897959-101.355102 36.048979-58.514286 20.897959-117.55102 41.795918-138.44898 49.110205-20.897959-7.314286-78.889796-28.734694-136.359184-49.110205-41.795918-15.15102-75.755102-27.167347-99.787755-36.048979-50.155102-17.763265-50.155102-17.763265-55.379592-17.763265-31.346939 0-56.42449-28.734694-56.424489-63.738776s25.6-63.738776 56.424489-63.738775c2.612245 0 5.22449 0 7.314286 0.522449l20.897959 3.657142z m-28.734694 170.840817z m587.232654 0zM798.82449 472.293878c3.657143-20.37551-9.926531-40.228571-30.82449-43.363266-48.587755-8.359184-141.583673-20.897959-258.612245-20.897959-115.983673 0-206.367347 12.538776-254.432653 20.897959-19.853061 3.134694-33.959184 22.987755-30.302041 43.363266l42.318368 237.191836c3.134694 16.195918 16.195918 28.734694 32.914285 30.82449 47.542857 5.22449 56.42449 15.673469 212.114286 15.673469s164.571429-9.926531 212.114286-15.673469c16.718367-2.089796 29.779592-14.628571 32.914285-30.82449l41.795919-237.191836zM583.053061 603.95102h-48.587755v48.587756c0 12.016327-9.926531 21.942857-21.942857 21.942857-12.016327 0-21.942857-9.926531-21.942857-21.942857v-48.587756h-48.587755c-12.016327 0-21.942857-9.926531-21.942857-21.942857s9.926531-21.942857 21.942857-21.942857h48.587755v-48.587755c0-12.016327 9.926531-21.942857 21.942857-21.942857 12.016327 0 21.942857 9.926531 21.942857 21.942857v48.587755h48.587755c12.016327 0 21.942857 9.926531 21.942857 21.942857s-9.926531 21.942857-21.942857 21.942857zM378.253061 286.82449m-42.840816 0a42.840816 42.840816 0 1 1 85.681633 0 42.840816 42.840816 0 1 1-85.681633 0ZM645.746939 286.82449m-42.840817 0a42.840816 42.840816 0 1 1 85.681633 0 42.840816 42.840816 0 1 1-85.681633 0ZM509.910204 384c-119.640816 0-213.159184 13.061224-258.089796 21.420408-16.195918 2.612245-30.302041 12.016327-39.706122 25.077551-9.404082 13.583673-13.061224 29.779592-9.926531 45.453061l42.318367 237.714286c4.702041 26.644898 26.644898 47.020408 53.289796 50.155102 10.971429 1.044898 19.853061 2.612245 29.257143 4.179592 30.82449 5.22449 65.828571 11.493878 185.991837 11.493878s154.644898-5.746939 185.469388-11.493878c9.404082-1.567347 18.285714-3.134694 29.257143-4.179592 26.644898-3.134694 48.587755-23.510204 53.289795-50.155102l41.795919-237.191837c3.134694-16.195918-1.044898-32.391837-10.44898-45.97551-9.404082-13.583673-23.510204-22.465306-39.706122-25.077551-47.020408-7.836735-142.628571-21.420408-262.791837-21.420408z m2.089796 348.473469c-115.983673 0-148.897959-5.746939-177.632653-10.448979-9.404082-1.567347-19.853061-3.657143-31.869388-4.702041-6.269388-0.522449-10.971429-5.746939-12.538775-11.493878l-41.795919-237.714285c-0.522449-3.657143 0-7.314286 2.089796-10.44898 2.089796-3.134694 5.22449-5.22449 8.881633-5.746939 43.885714-7.836735 134.269388-20.897959 250.253061-20.897959 116.506122 0 209.502041 13.061224 254.955102 20.897959 3.657143 0.522449 6.791837 2.612245 8.881633 5.746939 2.089796 3.134694 3.134694 6.791837 2.612245 10.44898l-41.795919 237.191836c-1.044898 6.269388-6.269388 10.971429-12.538775 11.493878-12.016327 1.567347-21.942857 3.134694-31.869388 4.702041-28.734694 5.22449-61.64898 10.971429-177.632653 10.971428z"  horiz-adv-x="1024" />

    
    <glyph glyph-name="zongheguanli1" unicode="&#58946;" d="M982.784 579.9936l-459.264-263.3728a25.6 25.6 0 0 0-25.4976 0L38.7584 579.9936a25.6 25.6 0 0 0 0 44.3904L497.9712 887.808a25.6 25.6 0 0 0 25.4464 0l459.3152-263.3728a25.6 25.6 0 0 0 0-44.3904zM498.3296 196.3008L85.504 427.2128a25.6 25.6 0 0 1-27.5456-1.6384l-25.9072-18.7904a25.6 25.6 0 0 1 2.304-42.9056l463.7184-265.9328a25.6 25.6 0 0 1 25.4464 0l463.4624 265.728a25.6 25.6 0 0 1 2.2016 43.0592l-23.7568 16.9984a25.6 25.6 0 0 1-27.2896 1.5872l-414.8736-229.0688a25.6 25.6 0 0 0-24.8832 0.0512zM498.3296-17.8176l-412.8768 230.912a25.6 25.6 0 0 1-27.5456-1.6384l-25.9072-18.7904a25.6 25.6 0 0 1 2.304-42.9568l463.7184-265.8816a25.6 25.6 0 0 1 25.4464 0l463.4624 265.728a25.6 25.6 0 0 1 2.2016 43.008l-23.7568 17.0496a25.6 25.6 0 0 1-27.2896 1.5872L523.264-17.92a25.6 25.6 0 0 0-24.8832 0.1024z"  horiz-adv-x="1024" />

    


  </font>
</defs>
</svg>
